frame:0    pts:0       pts_time:0
lavfi.psnr.mse.r=1367.642090
lavfi.psnr.psnr.r=16.771078
lavfi.psnr.mse.g=885.804382
lavfi.psnr.psnr.g=18.657425
lavfi.psnr.mse.b=274.825073
lavfi.psnr.psnr.b=23.740240
lavfi.psnr.mse_avg=842.757202
lavfi.psnr.psnr_avg=18.873779
frame:1    pts:1       pts_time:1
lavfi.psnr.mse.r=1356.681152
lavfi.psnr.psnr.r=16.806026
lavfi.psnr.mse.g=958.161560
lavfi.psnr.psnr.g=18.316416
lavfi.psnr.mse.b=428.238312
lavfi.psnr.psnr.b=21.813948
lavfi.psnr.mse_avg=914.360352
lavfi.psnr.psnr_avg=18.519630
frame:2    pts:2       pts_time:2
lavfi.psnr.mse.r=1387.254883
lavfi.psnr.psnr.r=16.709242
lavfi.psnr.mse.g=939.230957
lavfi.psnr.psnr.g=18.403080
lavfi.psnr.mse.b=493.913757
lavfi.psnr.psnr.b=21.194292
lavfi.psnr.mse_avg=940.133179
lavfi.psnr.psnr_avg=18.398911
frame:3    pts:3       pts_time:3
lavfi.psnr.mse.r=1433.291260
lavfi.psnr.psnr.r=16.567459
lavfi.psnr.mse.g=990.005859
lavfi.psnr.psnr.g=18.174425
lavfi.psnr.mse.b=550.512329
lavfi.psnr.psnr.b=20.723133
lavfi.psnr.mse_avg=991.269836
lavfi.psnr.psnr_avg=18.168884
frame:4    pts:4       pts_time:4
lavfi.psnr.mse.r=1385.949341
lavfi.psnr.psnr.r=16.713329
lavfi.psnr.mse.g=997.065796
lavfi.psnr.psnr.g=18.143566
lavfi.psnr.mse.b=601.962952
lavfi.psnr.psnr.b=20.335106
lavfi.psnr.mse_avg=994.992676
lavfi.psnr.psnr_avg=18.152605
